<svg class="ugb-custom-icon" xmlns="http://www.w3.org/2000/svg" viewBox="0 0 40 40" xml:space="preserve" aria-hidden="true" width="32" height="32">
  <path d="M26.67 28.98v-1.83c2.77-1.84 4.44-4.94 4.44-8.26 0-5.52 0-10-6.67-10s-6.67 4.48-6.67 10c.01 3.32 1.67 6.42 4.44 8.26v1.83c-7.54.62-13.33 4.32-13.33 8.8H40c0-4.48-5.8-8.18-13.33-8.8zm-15.31.86c2.13-1.34 4.48-2.28 6.94-2.79-.54-.63-1.01-1.32-1.41-2.05-1.04-1.87-1.6-3.97-1.61-6.11 0-2.99 0-5.81 1.06-8.12 1.02-2.23 3.1-3.79 5.53-4.15-.59-2.66-2.15-4.4-6.31-4.4-6.67 0-6.67 4.48-6.67 10 .01 3.32 1.68 6.42 4.45 8.26v1.83C5.79 22.93 0 26.63 0 31.11h9.69c.52-.46 1.08-.89 1.67-1.27z" fill="#2e4e2a"></path>
</svg>